<?xml version="1.0" encoding="UTF-8" standalone="no"?>
<!DOCTYPE svg PUBLIC "-//W3C//DTD SVG 1.1//EN"
 "http://www.w3.org/Graphics/SVG/1.1/DTD/svg11.dtd">
<!-- Generated by graphviz version 2.43.0 (0)
 -->
<!-- Title: %3 Pages: 1 -->
<svg width="821pt" height="676pt"
 viewBox="0.00 0.00 821.00 676.00" xmlns="http://www.w3.org/2000/svg" xmlns:xlink="http://www.w3.org/1999/xlink">
<g id="graph0" class="graph" transform="scale(1 1) rotate(0) translate(4 672)">
<title>%3</title>
<polygon fill="#ffffff" stroke="transparent" points="-4,4 -4,-672 817,-672 817,4 -4,4"/>
<!-- Power -->
<g id="node1" class="node">
<title>Power</title>
<polygon fill="#ffffff" stroke="black" points="151,-668 0,-668 0,-346 151,-346 151,-668"/>
<polygon fill="none" stroke="black" points="0.5,-645 0.5,-668 151.5,-668 151.5,-645 0.5,-645"/>
<text text-anchor="start" x="56.5" y="-652.8" font-family="arial" font-size="14.00">Power</text>
<polygon fill="none" stroke="black" points="0.5,-622 0.5,-645 51.5,-645 51.5,-622 0.5,-622"/>
<text text-anchor="start" x="4.5" y="-629.8" font-family="arial" font-size="14.00">USB&#45;C</text>
<polygon fill="none" stroke="black" points="51.5,-622 51.5,-645 105.5,-645 105.5,-622 51.5,-622"/>
<text text-anchor="start" x="55.5" y="-629.8" font-family="arial" font-size="14.00">Female</text>
<polygon fill="none" stroke="black" points="105.5,-622 105.5,-645 151.5,-645 151.5,-622 105.5,-622"/>
<text text-anchor="start" x="109.5" y="-629.8" font-family="arial" font-size="14.00">12&#45;pin</text>
<polygon fill="none" stroke="black" points="0.5,-599 0.5,-622 92.5,-622 92.5,-599 0.5,-599"/>
<text text-anchor="start" x="31" y="-606.8" font-family="arial" font-size="14.00">GND</text>
<polygon fill="none" stroke="black" points="92.5,-599 92.5,-622 151.5,-622 151.5,-599 92.5,-599"/>
<text text-anchor="start" x="118" y="-606.8" font-family="arial" font-size="14.00">1</text>
<polygon fill="none" stroke="black" points="0.5,-576 0.5,-599 92.5,-599 92.5,-576 0.5,-576"/>
<text text-anchor="start" x="29.5" y="-583.8" font-family="arial" font-size="14.00">TX1+</text>
<polygon fill="none" stroke="black" points="92.5,-576 92.5,-599 151.5,-599 151.5,-576 92.5,-576"/>
<text text-anchor="start" x="118" y="-583.8" font-family="arial" font-size="14.00">2</text>
<polygon fill="none" stroke="black" points="0.5,-553 0.5,-576 92.5,-576 92.5,-553 0.5,-553"/>
<text text-anchor="start" x="31.5" y="-560.8" font-family="arial" font-size="14.00">TX1&#45;</text>
<polygon fill="none" stroke="black" points="92.5,-553 92.5,-576 151.5,-576 151.5,-553 92.5,-553"/>
<text text-anchor="start" x="118" y="-560.8" font-family="arial" font-size="14.00">3</text>
<polygon fill="none" stroke="black" points="0.5,-530 0.5,-553 92.5,-553 92.5,-530 0.5,-530"/>
<text text-anchor="start" x="28" y="-537.8" font-family="arial" font-size="14.00">VBUS</text>
<polygon fill="none" stroke="black" points="92.5,-530 92.5,-553 151.5,-553 151.5,-530 92.5,-530"/>
<text text-anchor="start" x="118" y="-537.8" font-family="arial" font-size="14.00">4</text>
<polygon fill="none" stroke="black" points="0.5,-507 0.5,-530 92.5,-530 92.5,-507 0.5,-507"/>
<text text-anchor="start" x="32.5" y="-514.8" font-family="arial" font-size="14.00">CC1</text>
<polygon fill="none" stroke="black" points="92.5,-507 92.5,-530 151.5,-530 151.5,-507 92.5,-507"/>
<text text-anchor="start" x="118" y="-514.8" font-family="arial" font-size="14.00">5</text>
<polygon fill="none" stroke="black" points="0.5,-484 0.5,-507 92.5,-507 92.5,-484 0.5,-484"/>
<text text-anchor="start" x="37" y="-491.8" font-family="arial" font-size="14.00">D+</text>
<polygon fill="none" stroke="black" points="92.5,-484 92.5,-507 151.5,-507 151.5,-484 92.5,-484"/>
<text text-anchor="start" x="118" y="-491.8" font-family="arial" font-size="14.00">6</text>
<polygon fill="none" stroke="black" points="0.5,-461 0.5,-484 92.5,-484 92.5,-461 0.5,-461"/>
<text text-anchor="start" x="39" y="-468.8" font-family="arial" font-size="14.00">D&#45;</text>
<polygon fill="none" stroke="black" points="92.5,-461 92.5,-484 151.5,-484 151.5,-461 92.5,-461"/>
<text text-anchor="start" x="118" y="-468.8" font-family="arial" font-size="14.00">7</text>
<polygon fill="none" stroke="black" points="0.5,-438 0.5,-461 92.5,-461 92.5,-438 0.5,-438"/>
<text text-anchor="start" x="28.5" y="-445.8" font-family="arial" font-size="14.00">SBU1</text>
<polygon fill="none" stroke="black" points="92.5,-438 92.5,-461 151.5,-461 151.5,-438 92.5,-438"/>
<text text-anchor="start" x="118" y="-445.8" font-family="arial" font-size="14.00">8</text>
<polygon fill="none" stroke="black" points="0.5,-415 0.5,-438 92.5,-438 92.5,-415 0.5,-415"/>
<text text-anchor="start" x="22" y="-422.8" font-family="arial" font-size="14.00">VBUS b</text>
<polygon fill="none" stroke="black" points="92.5,-415 92.5,-438 151.5,-438 151.5,-415 92.5,-415"/>
<text text-anchor="start" x="118" y="-422.8" font-family="arial" font-size="14.00">9</text>
<polygon fill="none" stroke="black" points="0.5,-392 0.5,-415 92.5,-415 92.5,-392 0.5,-392"/>
<text text-anchor="start" x="31" y="-399.8" font-family="arial" font-size="14.00">RX2&#45;</text>
<polygon fill="none" stroke="black" points="92.5,-392 92.5,-415 151.5,-415 151.5,-392 92.5,-392"/>
<text text-anchor="start" x="114" y="-399.8" font-family="arial" font-size="14.00">10</text>
<polygon fill="none" stroke="black" points="0.5,-369 0.5,-392 92.5,-392 92.5,-369 0.5,-369"/>
<text text-anchor="start" x="29" y="-376.8" font-family="arial" font-size="14.00">RX2+</text>
<polygon fill="none" stroke="black" points="92.5,-369 92.5,-392 151.5,-392 151.5,-369 92.5,-369"/>
<text text-anchor="start" x="114" y="-376.8" font-family="arial" font-size="14.00">11</text>
<polygon fill="none" stroke="black" points="0.5,-346 0.5,-369 92.5,-369 92.5,-346 0.5,-346"/>
<text text-anchor="start" x="25" y="-353.8" font-family="arial" font-size="14.00">GND b</text>
<polygon fill="none" stroke="black" points="92.5,-346 92.5,-369 151.5,-369 151.5,-346 92.5,-346"/>
<text text-anchor="start" x="114" y="-353.8" font-family="arial" font-size="14.00">12</text>
</g>
<!-- Wiring -->
<g id="node4" class="node">
<title>Wiring</title>
<polygon fill="none" stroke="black" stroke-dasharray="5,2" points="500,-460 295,-460 295,-308 500,-308 500,-460"/>
<polygon fill="none" stroke="black" points="295.5,-441 295.5,-460 500.5,-460 500.5,-441 295.5,-441"/>
<text text-anchor="start" x="384" y="-448" font-family="arial" font-size="10.00">Wiring</text>
<polygon fill="none" stroke="black" points="295.5,-422 295.5,-441 500.5,-441 500.5,-422 295.5,-422"/>
<text text-anchor="start" x="392.5" y="-429" font-family="arial" font-size="10.00">4x</text>
<text text-anchor="start" x="329" y="-412" font-family="arial" font-size="10.00"> </text>
<text text-anchor="start" x="300" y="-397" font-family="arial" font-size="10.00">Power:1:GND</text>
<text text-anchor="start" x="369.5" y="-397" font-family="arial" font-size="10.00"> &#160;&#160;&#160;&#160;1:BK &#160;&#160;&#160;</text>
<text text-anchor="start" x="426" y="-397" font-family="arial" font-size="10.00">JetKVM:1:GND</text>
<polygon fill="#000000" stroke="transparent" points="295.5,-390 295.5,-392 500.5,-392 500.5,-390 295.5,-390"/>
<polygon fill="#000000" stroke="transparent" points="295.5,-388 295.5,-390 500.5,-390 500.5,-388 295.5,-388"/>
<polygon fill="#000000" stroke="transparent" points="295.5,-386 295.5,-388 500.5,-388 500.5,-386 295.5,-386"/>
<text text-anchor="start" x="297.5" y="-376" font-family="arial" font-size="10.00">Power:4:VBUS</text>
<text text-anchor="start" x="368.5" y="-376" font-family="arial" font-size="10.00"> &#160;&#160;&#160;&#160;2:RD &#160;&#160;&#160;</text>
<text text-anchor="start" x="423.5" y="-376" font-family="arial" font-size="10.00">JetKVM:4:VBUS</text>
<polygon fill="#000000" stroke="transparent" points="295.5,-369 295.5,-371 500.5,-371 500.5,-369 295.5,-369"/>
<polygon fill="#ff0000" stroke="transparent" points="295.5,-367 295.5,-369 500.5,-369 500.5,-367 295.5,-367"/>
<polygon fill="#000000" stroke="transparent" points="295.5,-365 295.5,-367 500.5,-367 500.5,-365 295.5,-365"/>
<text text-anchor="start" x="306" y="-355" font-family="arial" font-size="10.00">Power:7:D&#45;</text>
<text text-anchor="start" x="369" y="-355" font-family="arial" font-size="10.00"> &#160;&#160;&#160;&#160;3:BU &#160;&#160;&#160;</text>
<text text-anchor="start" x="432" y="-355" font-family="arial" font-size="10.00">JetKVM:6:D&#45;</text>
<polygon fill="#000000" stroke="transparent" points="295.5,-348 295.5,-350 500.5,-350 500.5,-348 295.5,-348"/>
<polygon fill="#0066ff" stroke="transparent" points="295.5,-346 295.5,-348 500.5,-348 500.5,-346 295.5,-346"/>
<polygon fill="#000000" stroke="transparent" points="295.5,-344 295.5,-346 500.5,-346 500.5,-344 295.5,-344"/>
<text text-anchor="start" x="304.5" y="-334" font-family="arial" font-size="10.00">Power:6:D+</text>
<text text-anchor="start" x="368.5" y="-334" font-family="arial" font-size="10.00"> &#160;&#160;&#160;&#160;4:GN &#160;&#160;&#160;</text>
<text text-anchor="start" x="430.5" y="-334" font-family="arial" font-size="10.00">JetKVM:7:D+</text>
<polygon fill="#000000" stroke="transparent" points="295.5,-327 295.5,-329 500.5,-329 500.5,-327 295.5,-327"/>
<polygon fill="#00ff00" stroke="transparent" points="295.5,-325 295.5,-327 500.5,-327 500.5,-325 295.5,-325"/>
<polygon fill="#000000" stroke="transparent" points="295.5,-323 295.5,-325 500.5,-325 500.5,-323 295.5,-323"/>
<text text-anchor="start" x="329" y="-313" font-family="arial" font-size="10.00"> </text>
</g>
<!-- Power&#45;&#45;Wiring -->
<g id="edge1" class="edge">
<title>Power:e&#45;&#45;Wiring:w</title>
<path fill="none" stroke="#000000" stroke-width="2" d="M151,-609C266.76,-611.76 175.54,-389.76 295,-387"/>
<path fill="none" stroke="#000000" stroke-width="2" d="M151,-611C268.61,-611 177.39,-389 295,-389"/>
<path fill="none" stroke="#000000" stroke-width="2" d="M151,-613C270.46,-610.24 179.24,-388.24 295,-391"/>
</g>
<!-- Power&#45;&#45;Wiring -->
<g id="edge3" class="edge">
<title>Power:e&#45;&#45;Wiring:w</title>
<path fill="none" stroke="#000000" stroke-width="2" d="M151,-540C249.48,-542.62 192.72,-368.62 295,-366"/>
<path fill="none" stroke="#ff0000" stroke-width="2" d="M151,-542C251.38,-542 194.62,-368 295,-368"/>
<path fill="none" stroke="#000000" stroke-width="2" d="M151,-544C253.28,-541.38 196.52,-367.38 295,-370"/>
</g>
<!-- Power&#45;&#45;Wiring -->
<g id="edge5" class="edge">
<title>Power:e&#45;&#45;Wiring:w</title>
<path fill="none" stroke="#000000" stroke-width="2" d="M151,-470C233.79,-472.4 208.29,-347.4 295,-345"/>
<path fill="none" stroke="#0066ff" stroke-width="2" d="M151,-472C235.75,-472 210.25,-347 295,-347"/>
<path fill="none" stroke="#000000" stroke-width="2" d="M151,-474C237.71,-471.6 212.21,-346.6 295,-349"/>
</g>
<!-- Power&#45;&#45;Wiring -->
<g id="edge7" class="edge">
<title>Power:e&#45;&#45;Wiring:w</title>
<path fill="none" stroke="#000000" stroke-width="2" d="M151,-493C247.77,-495.6 194.41,-326.6 295,-324"/>
<path fill="none" stroke="#00ff00" stroke-width="2" d="M151,-495C249.68,-495 196.32,-326 295,-326"/>
<path fill="none" stroke="#000000" stroke-width="2" d="M151,-497C251.59,-494.4 198.23,-325.4 295,-328"/>
</g>
<!-- JetKVM -->
<g id="node2" class="node">
<title>JetKVM</title>
<polygon fill="#ffffff" stroke="black" points="813,-507 644,-507 644,-185 813,-185 813,-507"/>
<polygon fill="none" stroke="black" points="644.5,-484 644.5,-507 813.5,-507 813.5,-484 644.5,-484"/>
<text text-anchor="start" x="704.5" y="-491.8" font-family="arial" font-size="14.00">JetKVM</text>
<polygon fill="none" stroke="black" points="644.5,-461 644.5,-484 728.5,-484 728.5,-461 644.5,-461"/>
<text text-anchor="start" x="648.5" y="-468.8" font-family="arial" font-size="14.00">USB&#45;C Male</text>
<polygon fill="none" stroke="black" points="728.5,-461 728.5,-484 767.5,-484 767.5,-461 728.5,-461"/>
<text text-anchor="start" x="732.5" y="-468.8" font-family="arial" font-size="14.00">Male</text>
<polygon fill="none" stroke="black" points="767.5,-461 767.5,-484 813.5,-484 813.5,-461 767.5,-461"/>
<text text-anchor="start" x="771.5" y="-468.8" font-family="arial" font-size="14.00">12&#45;pin</text>
<polygon fill="none" stroke="black" points="644.5,-438 644.5,-461 713.5,-461 713.5,-438 644.5,-438"/>
<text text-anchor="start" x="675" y="-445.8" font-family="arial" font-size="14.00">1</text>
<polygon fill="none" stroke="black" points="713.5,-438 713.5,-461 813.5,-461 813.5,-438 713.5,-438"/>
<text text-anchor="start" x="748" y="-445.8" font-family="arial" font-size="14.00">GND</text>
<polygon fill="none" stroke="black" points="644.5,-415 644.5,-438 713.5,-438 713.5,-415 644.5,-415"/>
<text text-anchor="start" x="675" y="-422.8" font-family="arial" font-size="14.00">2</text>
<polygon fill="none" stroke="black" points="713.5,-415 713.5,-438 813.5,-438 813.5,-415 713.5,-415"/>
<text text-anchor="start" x="746" y="-422.8" font-family="arial" font-size="14.00">RX2+</text>
<polygon fill="none" stroke="black" points="644.5,-392 644.5,-415 713.5,-415 713.5,-392 644.5,-392"/>
<text text-anchor="start" x="675" y="-399.8" font-family="arial" font-size="14.00">3</text>
<polygon fill="none" stroke="black" points="713.5,-392 713.5,-415 813.5,-415 813.5,-392 713.5,-392"/>
<text text-anchor="start" x="748" y="-399.8" font-family="arial" font-size="14.00">RX2&#45;</text>
<polygon fill="none" stroke="black" points="644.5,-369 644.5,-392 713.5,-392 713.5,-369 644.5,-369"/>
<text text-anchor="start" x="675" y="-376.8" font-family="arial" font-size="14.00">4</text>
<polygon fill="none" stroke="black" points="713.5,-369 713.5,-392 813.5,-392 813.5,-369 713.5,-369"/>
<text text-anchor="start" x="745" y="-376.8" font-family="arial" font-size="14.00">VBUS</text>
<polygon fill="none" stroke="black" points="644.5,-346 644.5,-369 713.5,-369 713.5,-346 644.5,-346"/>
<text text-anchor="start" x="675" y="-353.8" font-family="arial" font-size="14.00">5</text>
<polygon fill="none" stroke="black" points="713.5,-346 713.5,-369 813.5,-369 813.5,-346 713.5,-346"/>
<text text-anchor="start" x="745.5" y="-353.8" font-family="arial" font-size="14.00">SBU1</text>
<polygon fill="none" stroke="black" points="644.5,-323 644.5,-346 713.5,-346 713.5,-323 644.5,-323"/>
<text text-anchor="start" x="675" y="-330.8" font-family="arial" font-size="14.00">6</text>
<polygon fill="none" stroke="black" points="713.5,-323 713.5,-346 813.5,-346 813.5,-323 713.5,-323"/>
<text text-anchor="start" x="756" y="-330.8" font-family="arial" font-size="14.00">D&#45;</text>
<polygon fill="none" stroke="black" points="644.5,-300 644.5,-323 713.5,-323 713.5,-300 644.5,-300"/>
<text text-anchor="start" x="675" y="-307.8" font-family="arial" font-size="14.00">7</text>
<polygon fill="none" stroke="black" points="713.5,-300 713.5,-323 813.5,-323 813.5,-300 713.5,-300"/>
<text text-anchor="start" x="754" y="-307.8" font-family="arial" font-size="14.00">D+</text>
<polygon fill="none" stroke="black" points="644.5,-277 644.5,-300 713.5,-300 713.5,-277 644.5,-277"/>
<text text-anchor="start" x="675" y="-284.8" font-family="arial" font-size="14.00">8</text>
<polygon fill="none" stroke="black" points="713.5,-277 713.5,-300 813.5,-300 813.5,-277 713.5,-277"/>
<text text-anchor="start" x="749.5" y="-284.8" font-family="arial" font-size="14.00">CC1</text>
<polygon fill="none" stroke="black" points="644.5,-254 644.5,-277 713.5,-277 713.5,-254 644.5,-254"/>
<text text-anchor="start" x="675" y="-261.8" font-family="arial" font-size="14.00">9</text>
<polygon fill="none" stroke="black" points="713.5,-254 713.5,-277 813.5,-277 813.5,-254 713.5,-254"/>
<text text-anchor="start" x="740" y="-261.8" font-family="arial" font-size="14.00">SBU1 b</text>
<polygon fill="none" stroke="black" points="644.5,-231 644.5,-254 713.5,-254 713.5,-231 644.5,-231"/>
<text text-anchor="start" x="671" y="-238.8" font-family="arial" font-size="14.00">10</text>
<polygon fill="none" stroke="black" points="713.5,-231 713.5,-254 813.5,-254 813.5,-231 713.5,-231"/>
<text text-anchor="start" x="748.5" y="-238.8" font-family="arial" font-size="14.00">TX1&#45;</text>
<polygon fill="none" stroke="black" points="644.5,-208 644.5,-231 713.5,-231 713.5,-208 644.5,-208"/>
<text text-anchor="start" x="671" y="-215.8" font-family="arial" font-size="14.00">11</text>
<polygon fill="none" stroke="black" points="713.5,-208 713.5,-231 813.5,-231 813.5,-208 713.5,-208"/>
<text text-anchor="start" x="746.5" y="-215.8" font-family="arial" font-size="14.00">TX1+</text>
<polygon fill="none" stroke="black" points="644.5,-185 644.5,-208 713.5,-208 713.5,-185 644.5,-185"/>
<text text-anchor="start" x="671" y="-192.8" font-family="arial" font-size="14.00">12</text>
<polygon fill="none" stroke="black" points="713.5,-185 713.5,-208 813.5,-208 813.5,-185 713.5,-185"/>
<text text-anchor="start" x="742" y="-192.8" font-family="arial" font-size="14.00">GND b</text>
</g>
<!-- Data -->
<g id="node3" class="node">
<title>Data</title>
<polygon fill="#ffffff" stroke="black" points="151,-322 0,-322 0,0 151,0 151,-322"/>
<polygon fill="none" stroke="black" points="0.5,-299 0.5,-322 151.5,-322 151.5,-299 0.5,-299"/>
<text text-anchor="start" x="61.5" y="-306.8" font-family="arial" font-size="14.00">Data</text>
<polygon fill="none" stroke="black" points="0.5,-276 0.5,-299 51.5,-299 51.5,-276 0.5,-276"/>
<text text-anchor="start" x="4.5" y="-283.8" font-family="arial" font-size="14.00">USB&#45;C</text>
<polygon fill="none" stroke="black" points="51.5,-276 51.5,-299 105.5,-299 105.5,-276 51.5,-276"/>
<text text-anchor="start" x="55.5" y="-283.8" font-family="arial" font-size="14.00">Female</text>
<polygon fill="none" stroke="black" points="105.5,-276 105.5,-299 151.5,-299 151.5,-276 105.5,-276"/>
<text text-anchor="start" x="109.5" y="-283.8" font-family="arial" font-size="14.00">12&#45;pin</text>
<polygon fill="none" stroke="black" points="0.5,-253 0.5,-276 92.5,-276 92.5,-253 0.5,-253"/>
<text text-anchor="start" x="31" y="-260.8" font-family="arial" font-size="14.00">GND</text>
<polygon fill="none" stroke="black" points="92.5,-253 92.5,-276 151.5,-276 151.5,-253 92.5,-253"/>
<text text-anchor="start" x="118" y="-260.8" font-family="arial" font-size="14.00">1</text>
<polygon fill="none" stroke="black" points="0.5,-230 0.5,-253 92.5,-253 92.5,-230 0.5,-230"/>
<text text-anchor="start" x="29.5" y="-237.8" font-family="arial" font-size="14.00">TX1+</text>
<polygon fill="none" stroke="black" points="92.5,-230 92.5,-253 151.5,-253 151.5,-230 92.5,-230"/>
<text text-anchor="start" x="118" y="-237.8" font-family="arial" font-size="14.00">2</text>
<polygon fill="none" stroke="black" points="0.5,-207 0.5,-230 92.5,-230 92.5,-207 0.5,-207"/>
<text text-anchor="start" x="31.5" y="-214.8" font-family="arial" font-size="14.00">TX1&#45;</text>
<polygon fill="none" stroke="black" points="92.5,-207 92.5,-230 151.5,-230 151.5,-207 92.5,-207"/>
<text text-anchor="start" x="118" y="-214.8" font-family="arial" font-size="14.00">3</text>
<polygon fill="none" stroke="black" points="0.5,-184 0.5,-207 92.5,-207 92.5,-184 0.5,-184"/>
<text text-anchor="start" x="28" y="-191.8" font-family="arial" font-size="14.00">VBUS</text>
<polygon fill="none" stroke="black" points="92.5,-184 92.5,-207 151.5,-207 151.5,-184 92.5,-184"/>
<text text-anchor="start" x="118" y="-191.8" font-family="arial" font-size="14.00">4</text>
<polygon fill="none" stroke="black" points="0.5,-161 0.5,-184 92.5,-184 92.5,-161 0.5,-161"/>
<text text-anchor="start" x="32.5" y="-168.8" font-family="arial" font-size="14.00">CC1</text>
<polygon fill="none" stroke="black" points="92.5,-161 92.5,-184 151.5,-184 151.5,-161 92.5,-161"/>
<text text-anchor="start" x="118" y="-168.8" font-family="arial" font-size="14.00">5</text>
<polygon fill="none" stroke="black" points="0.5,-138 0.5,-161 92.5,-161 92.5,-138 0.5,-138"/>
<text text-anchor="start" x="37" y="-145.8" font-family="arial" font-size="14.00">D+</text>
<polygon fill="none" stroke="black" points="92.5,-138 92.5,-161 151.5,-161 151.5,-138 92.5,-138"/>
<text text-anchor="start" x="118" y="-145.8" font-family="arial" font-size="14.00">6</text>
<polygon fill="none" stroke="black" points="0.5,-115 0.5,-138 92.5,-138 92.5,-115 0.5,-115"/>
<text text-anchor="start" x="39" y="-122.8" font-family="arial" font-size="14.00">D&#45;</text>
<polygon fill="none" stroke="black" points="92.5,-115 92.5,-138 151.5,-138 151.5,-115 92.5,-115"/>
<text text-anchor="start" x="118" y="-122.8" font-family="arial" font-size="14.00">7</text>
<polygon fill="none" stroke="black" points="0.5,-92 0.5,-115 92.5,-115 92.5,-92 0.5,-92"/>
<text text-anchor="start" x="28.5" y="-99.8" font-family="arial" font-size="14.00">SBU1</text>
<polygon fill="none" stroke="black" points="92.5,-92 92.5,-115 151.5,-115 151.5,-92 92.5,-92"/>
<text text-anchor="start" x="118" y="-99.8" font-family="arial" font-size="14.00">8</text>
<polygon fill="none" stroke="black" points="0.5,-69 0.5,-92 92.5,-92 92.5,-69 0.5,-69"/>
<text text-anchor="start" x="22" y="-76.8" font-family="arial" font-size="14.00">VBUS b</text>
<polygon fill="none" stroke="black" points="92.5,-69 92.5,-92 151.5,-92 151.5,-69 92.5,-69"/>
<text text-anchor="start" x="118" y="-76.8" font-family="arial" font-size="14.00">9</text>
<polygon fill="none" stroke="black" points="0.5,-46 0.5,-69 92.5,-69 92.5,-46 0.5,-46"/>
<text text-anchor="start" x="31" y="-53.8" font-family="arial" font-size="14.00">RX2&#45;</text>
<polygon fill="none" stroke="black" points="92.5,-46 92.5,-69 151.5,-69 151.5,-46 92.5,-46"/>
<text text-anchor="start" x="114" y="-53.8" font-family="arial" font-size="14.00">10</text>
<polygon fill="none" stroke="black" points="0.5,-23 0.5,-46 92.5,-46 92.5,-23 0.5,-23"/>
<text text-anchor="start" x="29" y="-30.8" font-family="arial" font-size="14.00">RX2+</text>
<polygon fill="none" stroke="black" points="92.5,-23 92.5,-46 151.5,-46 151.5,-23 92.5,-23"/>
<text text-anchor="start" x="114" y="-30.8" font-family="arial" font-size="14.00">11</text>
<polygon fill="none" stroke="black" points="0.5,0 0.5,-23 92.5,-23 92.5,0 0.5,0"/>
<text text-anchor="start" x="25" y="-7.8" font-family="arial" font-size="14.00">GND b</text>
<polygon fill="none" stroke="black" points="92.5,0 92.5,-23 151.5,-23 151.5,0 92.5,0"/>
<text text-anchor="start" x="114" y="-7.8" font-family="arial" font-size="14.00">12</text>
</g>
<!-- Data&#45;&#45;Wiring -->
<g id="edge9" class="edge">
<title>Data:e&#45;&#45;Wiring:w</title>
<path fill="none" stroke="#000000" stroke-width="2" d="M151,-263C237.42,-265.39 212.5,-389.39 295,-387"/>
<path fill="none" stroke="#000000" stroke-width="2" d="M151,-265C235.46,-265 210.54,-389 295,-389"/>
<path fill="none" stroke="#000000" stroke-width="2" d="M151,-267C233.5,-264.61 208.58,-388.61 295,-391"/>
</g>
<!-- Data&#45;&#45;Wiring -->
<g id="edge11" class="edge">
<title>Data:e&#45;&#45;Wiring:w</title>
<path fill="none" stroke="#000000" stroke-width="2" d="M151,-194C252.6,-196.61 197.21,-368.61 295,-366"/>
<path fill="none" stroke="#ff0000" stroke-width="2" d="M151,-196C250.7,-196 195.3,-368 295,-368"/>
<path fill="none" stroke="#000000" stroke-width="2" d="M151,-198C248.79,-195.39 193.4,-367.39 295,-370"/>
</g>
<!-- Data&#45;&#45;Wiring -->
<g id="edge13" class="edge">
<title>Data:e&#45;&#45;Wiring:w</title>
<path fill="none" stroke="#000000" stroke-width="2" d="M151,-124C270.08,-126.76 179.62,-347.76 295,-345"/>
<path fill="none" stroke="#0066ff" stroke-width="2" d="M151,-126C268.23,-126 177.77,-347 295,-347"/>
<path fill="none" stroke="#000000" stroke-width="2" d="M151,-128C266.38,-125.24 175.92,-346.24 295,-349"/>
</g>
<!-- Data&#45;&#45;Wiring -->
<g id="edge15" class="edge">
<title>Data:e&#45;&#45;Wiring:w</title>
<path fill="none" stroke="#000000" stroke-width="2" d="M151,-147C254.31,-149.63 195.49,-326.63 295,-324"/>
<path fill="none" stroke="#00ff00" stroke-width="2" d="M151,-149C252.41,-149 193.59,-326 295,-326"/>
<path fill="none" stroke="#000000" stroke-width="2" d="M151,-151C250.51,-148.37 191.69,-325.37 295,-328"/>
</g>
<!-- Wiring&#45;&#45;JetKVM -->
<g id="edge2" class="edge">
<title>Wiring:e&#45;&#45;JetKVM:w</title>
<path fill="none" stroke="#000000" stroke-width="2" d="M500,-387C571.5,-388.84 576.49,-449.84 644,-448"/>
<path fill="none" stroke="#000000" stroke-width="2" d="M500,-389C569.51,-389 574.49,-450 644,-450"/>
<path fill="none" stroke="#000000" stroke-width="2" d="M500,-391C567.51,-389.16 572.5,-450.16 644,-452"/>
</g>
<!-- Wiring&#45;&#45;JetKVM -->
<g id="edge4" class="edge">
<title>Wiring:e&#45;&#45;JetKVM:w</title>
<path fill="none" stroke="#000000" stroke-width="2" d="M500,-366C565.55,-366.47 581.03,-379.47 644,-379"/>
<path fill="none" stroke="#ff0000" stroke-width="2" d="M500,-368C564.26,-368 579.74,-381 644,-381"/>
<path fill="none" stroke="#000000" stroke-width="2" d="M500,-370C562.97,-369.53 578.45,-382.53 644,-383"/>
</g>
<!-- Wiring&#45;&#45;JetKVM -->
<g id="edge6" class="edge">
<title>Wiring:e&#45;&#45;JetKVM:w</title>
<path fill="none" stroke="#000000" stroke-width="2" d="M500,-345C562.97,-345.47 578.45,-332.47 644,-332"/>
<path fill="none" stroke="#0066ff" stroke-width="2" d="M500,-347C564.26,-347 579.74,-334 644,-334"/>
<path fill="none" stroke="#000000" stroke-width="2" d="M500,-349C565.55,-348.53 581.03,-335.53 644,-336"/>
</g>
<!-- Wiring&#45;&#45;JetKVM -->
<g id="edge8" class="edge">
<title>Wiring:e&#45;&#45;JetKVM:w</title>
<path fill="none" stroke="#000000" stroke-width="2" d="M500,-324C562.95,-324.57 578.25,-309.57 644,-309"/>
<path fill="none" stroke="#00ff00" stroke-width="2" d="M500,-326C564.35,-326 579.65,-311 644,-311"/>
<path fill="none" stroke="#000000" stroke-width="2" d="M500,-328C565.75,-327.43 581.05,-312.43 644,-313"/>
</g>
<!-- Wiring&#45;&#45;JetKVM -->
<g id="edge10" class="edge">
<title>Wiring:e&#45;&#45;JetKVM:w</title>
<path fill="none" stroke="#000000" stroke-width="2" d="M500,-387C571.5,-388.84 576.49,-449.84 644,-448"/>
<path fill="none" stroke="#000000" stroke-width="2" d="M500,-389C569.51,-389 574.49,-450 644,-450"/>
<path fill="none" stroke="#000000" stroke-width="2" d="M500,-391C567.51,-389.16 572.5,-450.16 644,-452"/>
</g>
<!-- Wiring&#45;&#45;JetKVM -->
<g id="edge12" class="edge">
<title>Wiring:e&#45;&#45;JetKVM:w</title>
<path fill="none" stroke="#000000" stroke-width="2" d="M500,-366C565.55,-366.47 581.03,-379.47 644,-379"/>
<path fill="none" stroke="#ff0000" stroke-width="2" d="M500,-368C564.26,-368 579.74,-381 644,-381"/>
<path fill="none" stroke="#000000" stroke-width="2" d="M500,-370C562.97,-369.53 578.45,-382.53 644,-383"/>
</g>
<!-- Wiring&#45;&#45;JetKVM -->
<g id="edge14" class="edge">
<title>Wiring:e&#45;&#45;JetKVM:w</title>
<path fill="none" stroke="#000000" stroke-width="2" d="M500,-345C562.97,-345.47 578.45,-332.47 644,-332"/>
<path fill="none" stroke="#0066ff" stroke-width="2" d="M500,-347C564.26,-347 579.74,-334 644,-334"/>
<path fill="none" stroke="#000000" stroke-width="2" d="M500,-349C565.55,-348.53 581.03,-335.53 644,-336"/>
</g>
<!-- Wiring&#45;&#45;JetKVM -->
<g id="edge16" class="edge">
<title>Wiring:e&#45;&#45;JetKVM:w</title>
<path fill="none" stroke="#000000" stroke-width="2" d="M500,-324C562.95,-324.57 578.25,-309.57 644,-309"/>
<path fill="none" stroke="#00ff00" stroke-width="2" d="M500,-326C564.35,-326 579.65,-311 644,-311"/>
<path fill="none" stroke="#000000" stroke-width="2" d="M500,-328C565.75,-327.43 581.05,-312.43 644,-313"/>
</g>
</g>
</svg>
