<?xml version="1.0" encoding="UTF-8" standalone="no"?>
<!DOCTYPE svg PUBLIC "-//W3C//DTD SVG 1.1//EN"
 "http://www.w3.org/Graphics/SVG/1.1/DTD/svg11.dtd">
<!-- Generated by graphviz version 2.43.0 (0)
 -->
<!-- Title: %3 Pages: 1 -->
<svg width="674pt" height="311pt"
 viewBox="0.00 0.00 674.00 311.00" xmlns="http://www.w3.org/2000/svg" xmlns:xlink="http://www.w3.org/1999/xlink">
<g id="graph0" class="graph" transform="scale(1 1) rotate(0) translate(4 307)">
<title>%3</title>
<polygon fill="#ffffff" stroke="transparent" points="-4,4 -4,-307 670,-307 670,4 -4,4"/>
<!-- Power -->
<g id="node1" class="node">
<title>Power</title>
<polygon fill="#ffffff" stroke="black" points="75,-303 0,-303 0,-165 75,-165 75,-303"/>
<polygon fill="none" stroke="black" points="0.5,-280 0.5,-303 75.5,-303 75.5,-280 0.5,-280"/>
<text text-anchor="start" x="18.5" y="-287.8" font-family="arial" font-size="14.00">Power</text>
<polygon fill="none" stroke="black" points="0.5,-257 0.5,-280 36.5,-280 36.5,-257 0.5,-257"/>
<text text-anchor="start" x="4.5" y="-264.8" font-family="arial" font-size="14.00">USB</text>
<polygon fill="none" stroke="black" points="36.5,-257 36.5,-280 75.5,-280 75.5,-257 36.5,-257"/>
<text text-anchor="start" x="40.5" y="-264.8" font-family="arial" font-size="14.00">4&#45;pin</text>
<polygon fill="none" stroke="black" points="0.5,-234 0.5,-257 49.5,-257 49.5,-234 0.5,-234"/>
<text text-anchor="start" x="10.5" y="-241.8" font-family="arial" font-size="14.00">VCC</text>
<polygon fill="none" stroke="black" points="49.5,-234 49.5,-257 75.5,-257 75.5,-234 49.5,-234"/>
<text text-anchor="start" x="58.5" y="-241.8" font-family="arial" font-size="14.00">1</text>
<polygon fill="none" stroke="black" points="0.5,-211 0.5,-234 49.5,-234 49.5,-211 0.5,-211"/>
<text text-anchor="start" x="17.5" y="-218.8" font-family="arial" font-size="14.00">D&#45;</text>
<polygon fill="none" stroke="black" points="49.5,-211 49.5,-234 75.5,-234 75.5,-211 49.5,-211"/>
<text text-anchor="start" x="58.5" y="-218.8" font-family="arial" font-size="14.00">2</text>
<polygon fill="none" stroke="black" points="0.5,-188 0.5,-211 49.5,-211 49.5,-188 0.5,-188"/>
<text text-anchor="start" x="15.5" y="-195.8" font-family="arial" font-size="14.00">D+</text>
<polygon fill="none" stroke="black" points="49.5,-188 49.5,-211 75.5,-211 75.5,-188 49.5,-188"/>
<text text-anchor="start" x="58.5" y="-195.8" font-family="arial" font-size="14.00">3</text>
<polygon fill="none" stroke="black" points="0.5,-165 0.5,-188 49.5,-188 49.5,-165 0.5,-165"/>
<text text-anchor="start" x="9.5" y="-172.8" font-family="arial" font-size="14.00">GND</text>
<polygon fill="none" stroke="black" points="49.5,-165 49.5,-188 75.5,-188 75.5,-165 49.5,-165"/>
<text text-anchor="start" x="58.5" y="-172.8" font-family="arial" font-size="14.00">4</text>
</g>
<!-- Wiring -->
<g id="node4" class="node">
<title>Wiring</title>
<polygon fill="none" stroke="black" stroke-dasharray="5,2" points="435,-152 219,-152 219,0 435,0 435,-152"/>
<polygon fill="none" stroke="black" points="219,-133 219,-152 435,-152 435,-133 219,-133"/>
<text text-anchor="start" x="313" y="-140" font-family="arial" font-size="10.00">Wiring</text>
<polygon fill="none" stroke="black" points="219,-114 219,-133 435,-133 435,-114 219,-114"/>
<text text-anchor="start" x="321.5" y="-121" font-family="arial" font-size="10.00">4x</text>
<text text-anchor="start" x="250" y="-104" font-family="arial" font-size="10.00"> </text>
<text text-anchor="start" x="221.5" y="-89" font-family="arial" font-size="10.00">Power:1:VCC</text>
<text text-anchor="start" x="287" y="-89" font-family="arial" font-size="10.00"> &#160;&#160;&#160;&#160;1:RD &#160;&#160;&#160;</text>
<text text-anchor="start" x="342" y="-89" font-family="arial" font-size="10.00">Raspberry Pi:1:VCC</text>
<polygon fill="#000000" stroke="transparent" points="219,-82 219,-84 435,-84 435,-82 219,-82"/>
<polygon fill="#ff0000" stroke="transparent" points="219,-80 219,-82 435,-82 435,-80 219,-80"/>
<polygon fill="#000000" stroke="transparent" points="219,-78 219,-80 435,-80 435,-78 219,-78"/>
<text text-anchor="start" x="226.5" y="-68" font-family="arial" font-size="10.00">Server:2:D&#45;</text>
<text text-anchor="start" x="287.5" y="-68" font-family="arial" font-size="10.00"> &#160;&#160;&#160;&#160;2:BU &#160;&#160;&#160;</text>
<text text-anchor="start" x="348" y="-68" font-family="arial" font-size="10.00">Raspberry Pi:2:D&#45;</text>
<polygon fill="#000000" stroke="transparent" points="219,-61 219,-63 435,-63 435,-61 219,-61"/>
<polygon fill="#0066ff" stroke="transparent" points="219,-59 219,-61 435,-61 435,-59 219,-59"/>
<polygon fill="#000000" stroke="transparent" points="219,-57 219,-59 435,-59 435,-57 219,-57"/>
<text text-anchor="start" x="225" y="-47" font-family="arial" font-size="10.00">Server:3:D+</text>
<text text-anchor="start" x="287" y="-47" font-family="arial" font-size="10.00"> &#160;&#160;&#160;&#160;3:GN &#160;&#160;&#160;</text>
<text text-anchor="start" x="346.5" y="-47" font-family="arial" font-size="10.00">Raspberry Pi:3:D+</text>
<polygon fill="#000000" stroke="transparent" points="219,-40 219,-42 435,-42 435,-40 219,-40"/>
<polygon fill="#00ff00" stroke="transparent" points="219,-38 219,-40 435,-40 435,-38 219,-38"/>
<polygon fill="#000000" stroke="transparent" points="219,-36 219,-38 435,-38 435,-36 219,-36"/>
<text text-anchor="start" x="221" y="-26" font-family="arial" font-size="10.00">Power:4:GND</text>
<text text-anchor="start" x="288" y="-26" font-family="arial" font-size="10.00"> &#160;&#160;&#160;&#160;4:BK &#160;&#160;&#160;</text>
<text text-anchor="start" x="342" y="-26" font-family="arial" font-size="10.00">Raspberry Pi:4:GND</text>
<polygon fill="#000000" stroke="transparent" points="219,-19 219,-21 435,-21 435,-19 219,-19"/>
<polygon fill="#000000" stroke="transparent" points="219,-17 219,-19 435,-19 435,-17 219,-17"/>
<polygon fill="#000000" stroke="transparent" points="219,-15 219,-17 435,-17 435,-15 219,-15"/>
<text text-anchor="start" x="250" y="-5" font-family="arial" font-size="10.00"> </text>
</g>
<!-- Power&#45;&#45;Wiring -->
<g id="edge1" class="edge">
<title>Power:e&#45;&#45;Wiring:w</title>
<path fill="none" stroke="#000000" stroke-width="2" d="M75,-244C170.42,-246.59 119.75,-81.59 219,-79"/>
<path fill="none" stroke="#ff0000" stroke-width="2" d="M75,-246C172.33,-246 121.67,-81 219,-81"/>
<path fill="none" stroke="#000000" stroke-width="2" d="M75,-248C174.25,-245.41 123.58,-80.41 219,-83"/>
</g>
<!-- Power&#45;&#45;Wiring -->
<g id="edge3" class="edge">
<title>Power:e&#45;&#45;Wiring:w</title>
<path fill="none" stroke="#000000" stroke-width="2" d="M75,-174C168.09,-176.56 122.07,-18.56 219,-16"/>
<path fill="none" stroke="#000000" stroke-width="2" d="M75,-176C170.01,-176 123.99,-18 219,-18"/>
<path fill="none" stroke="#000000" stroke-width="2" d="M75,-178C171.93,-175.44 125.91,-17.44 219,-20"/>
</g>
<!-- Raspberry Pi -->
<g id="node2" class="node">
<title>Raspberry Pi</title>
<polygon fill="#ffffff" stroke="black" points="666,-143 579,-143 579,-5 666,-5 666,-143"/>
<polygon fill="none" stroke="black" points="579.5,-120 579.5,-143 666.5,-143 666.5,-120 579.5,-120"/>
<text text-anchor="start" x="583.5" y="-127.8" font-family="arial" font-size="14.00">Raspberry Pi</text>
<polygon fill="none" stroke="black" points="579.5,-97 579.5,-120 621.5,-120 621.5,-97 579.5,-97"/>
<text text-anchor="start" x="586.5" y="-104.8" font-family="arial" font-size="14.00">USB</text>
<polygon fill="none" stroke="black" points="621.5,-97 621.5,-120 666.5,-120 666.5,-97 621.5,-97"/>
<text text-anchor="start" x="628.5" y="-104.8" font-family="arial" font-size="14.00">4&#45;pin</text>
<polygon fill="none" stroke="black" points="579.5,-74 579.5,-97 611.5,-97 611.5,-74 579.5,-74"/>
<text text-anchor="start" x="591.5" y="-81.8" font-family="arial" font-size="14.00">1</text>
<polygon fill="none" stroke="black" points="611.5,-74 611.5,-97 666.5,-97 666.5,-74 611.5,-74"/>
<text text-anchor="start" x="624.5" y="-81.8" font-family="arial" font-size="14.00">VCC</text>
<polygon fill="none" stroke="black" points="579.5,-51 579.5,-74 611.5,-74 611.5,-51 579.5,-51"/>
<text text-anchor="start" x="591.5" y="-58.8" font-family="arial" font-size="14.00">2</text>
<polygon fill="none" stroke="black" points="611.5,-51 611.5,-74 666.5,-74 666.5,-51 611.5,-51"/>
<text text-anchor="start" x="631.5" y="-58.8" font-family="arial" font-size="14.00">D&#45;</text>
<polygon fill="none" stroke="black" points="579.5,-28 579.5,-51 611.5,-51 611.5,-28 579.5,-28"/>
<text text-anchor="start" x="591.5" y="-35.8" font-family="arial" font-size="14.00">3</text>
<polygon fill="none" stroke="black" points="611.5,-28 611.5,-51 666.5,-51 666.5,-28 611.5,-28"/>
<text text-anchor="start" x="629.5" y="-35.8" font-family="arial" font-size="14.00">D+</text>
<polygon fill="none" stroke="black" points="579.5,-5 579.5,-28 611.5,-28 611.5,-5 579.5,-5"/>
<text text-anchor="start" x="591.5" y="-12.8" font-family="arial" font-size="14.00">4</text>
<polygon fill="none" stroke="black" points="611.5,-5 611.5,-28 666.5,-28 666.5,-5 611.5,-5"/>
<text text-anchor="start" x="623.5" y="-12.8" font-family="arial" font-size="14.00">GND</text>
</g>
<!-- Server -->
<g id="node3" class="node">
<title>Server</title>
<polygon fill="#ffffff" stroke="black" points="75,-141 0,-141 0,-3 75,-3 75,-141"/>
<polygon fill="none" stroke="black" points="0.5,-118 0.5,-141 75.5,-141 75.5,-118 0.5,-118"/>
<text text-anchor="start" x="18" y="-125.8" font-family="arial" font-size="14.00">Server</text>
<polygon fill="none" stroke="black" points="0.5,-95 0.5,-118 36.5,-118 36.5,-95 0.5,-95"/>
<text text-anchor="start" x="4.5" y="-102.8" font-family="arial" font-size="14.00">USB</text>
<polygon fill="none" stroke="black" points="36.5,-95 36.5,-118 75.5,-118 75.5,-95 36.5,-95"/>
<text text-anchor="start" x="40.5" y="-102.8" font-family="arial" font-size="14.00">4&#45;pin</text>
<polygon fill="none" stroke="black" points="0.5,-72 0.5,-95 49.5,-95 49.5,-72 0.5,-72"/>
<text text-anchor="start" x="10.5" y="-79.8" font-family="arial" font-size="14.00">VCC</text>
<polygon fill="none" stroke="black" points="49.5,-72 49.5,-95 75.5,-95 75.5,-72 49.5,-72"/>
<text text-anchor="start" x="58.5" y="-79.8" font-family="arial" font-size="14.00">1</text>
<polygon fill="none" stroke="black" points="0.5,-49 0.5,-72 49.5,-72 49.5,-49 0.5,-49"/>
<text text-anchor="start" x="17.5" y="-56.8" font-family="arial" font-size="14.00">D&#45;</text>
<polygon fill="none" stroke="black" points="49.5,-49 49.5,-72 75.5,-72 75.5,-49 49.5,-49"/>
<text text-anchor="start" x="58.5" y="-56.8" font-family="arial" font-size="14.00">2</text>
<polygon fill="none" stroke="black" points="0.5,-26 0.5,-49 49.5,-49 49.5,-26 0.5,-26"/>
<text text-anchor="start" x="15.5" y="-33.8" font-family="arial" font-size="14.00">D+</text>
<polygon fill="none" stroke="black" points="49.5,-26 49.5,-49 75.5,-49 75.5,-26 49.5,-26"/>
<text text-anchor="start" x="58.5" y="-33.8" font-family="arial" font-size="14.00">3</text>
<polygon fill="none" stroke="black" points="0.5,-3 0.5,-26 49.5,-26 49.5,-3 0.5,-3"/>
<text text-anchor="start" x="9.5" y="-10.8" font-family="arial" font-size="14.00">GND</text>
<polygon fill="none" stroke="black" points="49.5,-3 49.5,-26 75.5,-26 75.5,-3 49.5,-3"/>
<text text-anchor="start" x="58.5" y="-10.8" font-family="arial" font-size="14.00">4</text>
</g>
<!-- Server&#45;&#45;Wiring -->
<g id="edge5" class="edge">
<title>Server:e&#45;&#45;Wiring:w</title>
<path fill="none" stroke="#000000" stroke-width="2" d="M75,-58C139,-58 155,-58 219,-58"/>
<path fill="none" stroke="#0066ff" stroke-width="2" d="M75,-60C139,-60 155,-60 219,-60"/>
<path fill="none" stroke="#000000" stroke-width="2" d="M75,-62C139,-62 155,-62 219,-62"/>
</g>
<!-- Server&#45;&#45;Wiring -->
<g id="edge7" class="edge">
<title>Server:e&#45;&#45;Wiring:w</title>
<path fill="none" stroke="#000000" stroke-width="2" d="M75,-35C139.25,-35.02 155.24,-37.02 219,-37"/>
<path fill="none" stroke="#00ff00" stroke-width="2" d="M75,-37C139.01,-37 154.99,-39 219,-39"/>
<path fill="none" stroke="#000000" stroke-width="2" d="M75,-39C138.76,-38.98 154.75,-40.98 219,-41"/>
</g>
<!-- Server&#45;&#45;Wiring -->
<g id="edge9" class="edge">
<title>Server:e&#45;&#45;Wiring:w</title>
<path fill="none" stroke="#000000" stroke-width="2" d="M75,-12C139.51,-12.06 155.46,-16.06 219,-16"/>
<path fill="none" stroke="#000000" stroke-width="2" d="M75,-14C139.02,-14 154.98,-18 219,-18"/>
<path fill="none" stroke="#000000" stroke-width="2" d="M75,-16C138.54,-15.94 154.49,-19.94 219,-20"/>
</g>
<!-- Wiring&#45;&#45;Raspberry Pi -->
<g id="edge2" class="edge">
<title>Wiring:e&#45;&#45;Raspberry Pi:w</title>
<path fill="none" stroke="#000000" stroke-width="2" d="M435,-79C499.64,-79.09 515.56,-84.09 579,-84"/>
<path fill="none" stroke="#ff0000" stroke-width="2" d="M435,-81C499.04,-81 514.96,-86 579,-86"/>
<path fill="none" stroke="#000000" stroke-width="2" d="M435,-83C498.44,-82.91 514.36,-87.91 579,-88"/>
</g>
<!-- Wiring&#45;&#45;Raspberry Pi -->
<g id="edge4" class="edge">
<title>Wiring:e&#45;&#45;Raspberry Pi:w</title>
<path fill="none" stroke="#000000" stroke-width="2" d="M435,-16C498.76,-16.02 514.75,-14.02 579,-14"/>
<path fill="none" stroke="#000000" stroke-width="2" d="M435,-18C499.01,-18 514.99,-16 579,-16"/>
<path fill="none" stroke="#000000" stroke-width="2" d="M435,-20C499.25,-19.98 515.24,-17.98 579,-18"/>
</g>
<!-- Wiring&#45;&#45;Raspberry Pi -->
<g id="edge6" class="edge">
<title>Wiring:e&#45;&#45;Raspberry Pi:w</title>
<path fill="none" stroke="#000000" stroke-width="2" d="M435,-58C499.25,-58.02 515.24,-60.02 579,-60"/>
<path fill="none" stroke="#0066ff" stroke-width="2" d="M435,-60C499.01,-60 514.99,-62 579,-62"/>
<path fill="none" stroke="#000000" stroke-width="2" d="M435,-62C498.76,-61.98 514.75,-63.98 579,-64"/>
</g>
<!-- Wiring&#45;&#45;Raspberry Pi -->
<g id="edge8" class="edge">
<title>Wiring:e&#45;&#45;Raspberry Pi:w</title>
<path fill="none" stroke="#000000" stroke-width="2" d="M435,-37C499,-37 515,-37 579,-37"/>
<path fill="none" stroke="#00ff00" stroke-width="2" d="M435,-39C499,-39 515,-39 579,-39"/>
<path fill="none" stroke="#000000" stroke-width="2" d="M435,-41C499,-41 515,-41 579,-41"/>
</g>
<!-- Wiring&#45;&#45;Raspberry Pi -->
<g id="edge10" class="edge">
<title>Wiring:e&#45;&#45;Raspberry Pi:w</title>
<path fill="none" stroke="#000000" stroke-width="2" d="M435,-16C498.76,-16.02 514.75,-14.02 579,-14"/>
<path fill="none" stroke="#000000" stroke-width="2" d="M435,-18C499.01,-18 514.99,-16 579,-16"/>
<path fill="none" stroke="#000000" stroke-width="2" d="M435,-20C499.25,-19.98 515.24,-17.98 579,-18"/>
</g>
</g>
</svg>
